<?xml version="1.0" encoding="UTF-8" standalone="no"?>
<!-- Created with Inkscape (http://www.inkscape.org/) -->

<svg
   xmlns:dc="http://purl.org/dc/elements/1.1/"
   xmlns:cc="http://creativecommons.org/ns#"
   xmlns:rdf="http://www.w3.org/1999/02/22-rdf-syntax-ns#"
   xmlns:svg="http://www.w3.org/2000/svg"
   xmlns="http://www.w3.org/2000/svg"
   xmlns:sodipodi="http://sodipodi.sourceforge.net/DTD/sodipodi-0.dtd"
   xmlns:inkscape="http://www.inkscape.org/namespaces/inkscape"
   width="930.38416mm"
   height="522.59076mm"
   viewBox="0 0 3296.6368 1851.6995"
   id="svg2"
   version="1.1"
   inkscape:version="0.91 r13725"
   sodipodi:docname="mkkp.svg">
  <defs
     id="defs4" />
  <sodipodi:namedview
     id="base"
     pagecolor="#ffffff"
     bordercolor="#666666"
     borderopacity="1.0"
     inkscape:pageopacity="0.0"
     inkscape:pageshadow="2"
     inkscape:zoom="0.24748737"
     inkscape:cx="2629.2691"
     inkscape:cy="782.80684"
     inkscape:document-units="px"
     inkscape:current-layer="layer1"
     showgrid="false"
     fit-margin-top="0"
     fit-margin-left="0"
     fit-margin-right="0"
     fit-margin-bottom="0"
     inkscape:window-width="1366"
     inkscape:window-height="715"
     inkscape:window-x="-8"
     inkscape:window-y="-8"
     inkscape:window-maximized="1" />
  <metadata
     id="metadata7">
    <rdf:RDF>
      <cc:Work
         rdf:about="">
        <dc:format>image/svg+xml</dc:format>
        <dc:type
           rdf:resource="http://purl.org/dc/dcmitype/StillImage" />
        <dc:title />
      </cc:Work>
    </rdf:RDF>
  </metadata>
  <g
     inkscape:label="1. réteg"
     inkscape:groupmode="layer"
     id="layer1"
     transform="translate(1276.2712,399.66862)">
    <g
       id="g4289">
      <path
         sodipodi:nodetypes="ccccccccccccccccccccccccccccccccccccccccccccccccccccccc"
         inkscape:connector-curvature="0"
         id="path3461"
         d="m -494.28571,795.21935 -242.85715,157.14285 -131.42857,217.1429 88.57143,85.7142 125.71429,-22.8571 68.57142,-165.7143 154.28572,-137.14284 334.285713,-57.14286 88.5714284,114.28572 117.1428586,248.57138 -120.000001,60 L 40,1386.6479 l 357.14286,11.4286 120,-68.5714 -114.28572,-117.1429 102.85715,-340 151.42857,-8.57142 131.42857,140.00002 102.85714,225.7143 -77.14286,71.4285 25.71429,102.8572 471.4286,-28.5715 14.2857,-68.5714 -125.7143,-85.7143 194.2857,-577.14282 20,85.71428 8.5714,111.42857 5.7143,231.42857 91.4286,165.7143 51.4286,-37.1429 28.5714,-97.1428 -65.7143,-457.14288 100,114.28571 102.8572,-40 111.4285,-345.71428 122.8572,-542.85715 -5.7143,-188.57142 -117.1429,54.28571 L 1622.8571,-59.066367 1194.2857,-347.6378 1165.7143,-221.92351 1300,20.933633 l -5.7143,88.571427 -217.1428,174.28572 -328.57147,125.71428 -585.71429,60 -354.28571,171.42857 -402.85714,-54.28571 -268.57143,-180 -179.99996,-271.42857 -142.8572,2.85714 -60,114.28571 48.5714,102.85715 631.42861,405.71428 z"
         style="fill:#ffffff;fill-rule:evenodd;stroke:#000000;stroke-width:1px;stroke-linecap:butt;stroke-linejoin:miter;stroke-opacity:1" />
      <path
         inkscape:connector-curvature="0"
         id="path4287"
         d="m 1429.3659,816.99666 -2.0204,158.59395 131.3199,-96.97464 -24.2437,-139.40105 z"
         style="fill:#adadad;fill-opacity:1;fill-rule:evenodd;stroke:#000000;stroke-width:1px;stroke-linecap:butt;stroke-linejoin:miter;stroke-opacity:1" />
      <path
         inkscape:connector-curvature="0"
         id="path4285"
         d="m 1464.7212,1131.1541 68.6904,129.2995 68.6903,-144.4518 -18.1827,-86.8731 z"
         style="fill:#adadad;fill-opacity:1;fill-rule:evenodd;stroke:#000000;stroke-width:1px;stroke-linecap:butt;stroke-linejoin:miter;stroke-opacity:1" />
      <g
         transform="translate(2.7492323,-87.694985)"
         id="g3416">
        <path
           style="fill:#000000"
           d="m 52.04703,1533.673 c -7.977793,-3.5766 -25.39432,-12.4061 -38.703459,-19.6211 -83.665612,-45.3561 -105.696862,-129.7447 -47.853332,-183.2976 15.556277,-14.4024 34.81078621,-26.5067 51.485571,-32.3662 9.675663,-3.4 9.719691,-3.4776 8.212351,-14.475 C 22.309983,1262.9147 3.2863959,1188.782 -6.9604745,1158.6337 -27.269947,1098.8793 -55.066742,1049.7586 -89.009887,1013.6414 l -17.587973,-18.71446 -11.24026,3.99658 c -6.18215,2.19808 -26.00895,9.31978 -44.05957,15.82598 -65.31338,23.5414 -138.51493,43.2114 -206.20479,55.4092 -48.12522,8.6722 -128.35736,49.539 -166.9465,85.0353 l -14.66344,13.4882 -12.30104,48.5964 c -18.33309,72.4264 -33.29145,103.8764 -64.61523,135.8536 -14.52967,14.8327 -22.49042,20.4976 -42.44931,30.2071 l -24.56586,11.9506 -47.17266,-2.8264 c -72.93647,-4.3699 -107.17317,-14.8716 -134.69545,-41.3164 -15.33929,-14.7388 -27.45365,-37.2602 -32.28693,-60.0236 -1.6215,-7.6368 -2.90385,-27.7808 -2.84967,-44.7645 0.0926,-29.0837 0.52995,-31.7261 7.51832,-45.4421 4.08088,-8.0095 14.61631,-24.92 23.41201,-37.5789 18.34276,-26.3992 99.92596,-121.7945 128.21782,-149.9253 20.45436,-20.33786 77.29299,-64.04167 129.65231,-99.69099 17.78658,-12.11015 31.98724,-22.36735 31.55703,-22.79375 -0.43021,-0.42642 -13.27879,-6.08192 -28.55239,-12.56777 -62.98597,-26.74668 -147.28345,-76.13341 -227.957,-133.5514 -16.2516,-11.56681 -72.15035,-55.42263 -124.21945,-97.4574 -52.06908,-42.03475 -104.89558,-84.65565 -117.39218,-94.71305 -14.8922,-11.98546 -39.6835,-27.53031 -71.95,-45.11464 -55.6669,-30.33691 -65.3717,-38.65489 -91.5612,-78.47638 -28.0501,-42.65079 -27.0932,-39.18817 -27.0932,-98.04461 0,-46.81481 0.4196,-51.82596 4.6617,-55.66496 2.5639,-2.32033 5.9858,-8.6384 7.6042,-14.04018 3.8183,-12.74417 21.1805,-36.1787 37.9819,-51.26573 67.8234,-60.9028 161.9236,-58.57248 227.2658,5.62808 13.96638,13.72231 20.78,23.85153 41.60582,61.85178 50.99444,93.048 65.9292,114.13496 118.58084,167.42908 32.98005,33.38249 49.29246,47.48947 85.96127,74.33935 55.40024,40.56551 72.81941,51.1388 133.98693,81.32911 90.84189,44.83661 170.52344,69.30482 263.81677,81.01152 45.40804,5.69794 121.87443,3.89424 164.09655,-3.87074 l 29.03247,-5.3393 31.55703,-21.08802 C -50.48759,596.27371 -2.3834429,572.70954 91.820829,541.25862 212.64411,500.92071 349.86223,477.90288 580.32364,459.31407 c 130.1471,-10.49753 252.2519,-38.46524 372.37295,-85.29082 41.51719,-16.18424 130.78141,-60.01456 153.99831,-75.61598 19.3124,-12.97766 62.4248,-46.76587 107.794,-84.48097 l 38.3686,-31.89545 1.7061,-13.65551 c 2.2549,-18.04746 -0.9985,-63.0796 -5.2473,-72.632138 -1.8528,-4.165528 -7.5495,-18.366192 -12.6592,-31.55703 -11.4633,-29.59272 -28.933,-62.8307301 -64.5937,-122.896433 -47.1308,-79.385499 -66.142,-121.193409 -75.5854,-166.222269 -4.295,-20.48036 -4.4185,-24.13539 -1.2244,-36.2438 3.9858,-15.10951 11.4284,-27.35129 25.1277,-41.33019 l 9.2778,-9.46711 42.1973,0 c 40.6858,0 42.2866,0.19388 44.6895,5.41329 1.3706,2.97732 7.6926,7.42572 14.049,9.88535 31.9438,12.36079 95.5953,42.92842 124.7694,59.9185 108.2012,63.01308 177.8781,114.13224 232.9444,170.901793 l 33.4759,34.511552 12.3348,-10.327278 c 19.9355,-16.690968 54.9673,-56.433666 108.0818,-122.616307 68.3626,-85.1822 118.4522,-128.41475 165.6767,-142.99632 21.5923,-6.66709 41.6659,-5.40251 60.4981,3.81123 23.4045,11.45071 28.6856,19.22955 39.0153,57.46763 8.8171,32.63772 9.1465,35.43148 9.9925,84.71406 1.2171,70.896459 -0.5301,79.035699 -51.3842,239.361395 -13.2128,41.655285 -25.6149,80.849115 -27.5609,87.097405 -16.3851,52.61738 -25.6983,102.58398 -34.1146,183.03078 -6.5382,62.49536 -20.4803,146.42061 -27.6801,166.62112 -23.9422,67.17553 -56.2414,167.59141 -62.933,195.65359 -19.0469,79.87771 -50.2439,135.86895 -90.4602,162.35466 -24.3668,16.04743 -39.8224,20.68303 -68.7259,20.6127 -32.3636,-0.0788 -54.8203,-7.10672 -76.9804,-24.09142 -9.0357,-6.92541 -16.4203,-11.13999 -16.4107,-9.36577 0,1.77421 2.19,12.31428 4.8449,23.42236 12.8861,53.91448 31.2871,157.45051 39.2592,220.89921 14.2211,113.1815 7.3361,144.1485 -57.6443,259.2703 -12.6961,22.4926 -23.7436,40.1015 -24.5504,39.1307 -0.8066,-0.9707 -6.9317,-15.3975 -13.6109,-32.0597 -23.3689,-58.2949 -55.9385,-118.8324 -91.2458,-169.5998 l -16.1178,-23.1753 -8e-4,-43.7256 c 0,-53.0541 -4.3023,-204.64284 -6.6489,-234.33016 l -1.6963,-21.45878 -6.9213,22.72106 c -3.8068,12.49659 -11.154,36.92173 -16.3274,54.2781 -5.1733,17.35636 -21.3461,67.34268 -35.9396,111.08078 -21.1816,63.4831 -67.7169,222.2977 -65.5038,223.5503 30.9445,17.5164 68.2341,51.6297 82.2919,75.282 14.4084,24.2426 18.4883,39.8799 17.2437,66.0909 -0.93,19.5883 -2.3084,25.3466 -9.6678,40.393 -8.1076,16.5753 -9.4928,17.9935 -24.9929,25.5858 -18.9059,9.2606 -48.46,18.2163 -84.5728,25.628 -107.1596,21.9933 -300.27451,19.7171 -417.3036,-4.9186 l -25.9964,-5.4725 -15.09726,-15.2384 c -25.56004,-25.799 -37.67927,-53.2119 -37.67927,-85.2278 0,-41.7655 26.35691,-86.7942 67.36731,-115.0919 l 13.08925,-9.0317 -6.47124,-17.9969 c -21.89631,-60.8951 -64.03451,-139.2895 -125.94221,-234.3045 l -21.58682,-33.1312 -41.64804,1.7071 c -40.50975,1.6604 -92.47355,5.8247 -98.68423,7.9085 -5.5885,1.875 -24.99584,44.7487 -40.56388,89.6117 -28.29621,81.5422 -41.76846,132.0919 -44.85307,168.295 l -1.47066,17.2604 20.12892,10.9695 c 37.88608,20.6464 64.17334,48.2946 78.53249,82.5982 7.04416,16.8283 7.32618,18.8155 5.01558,35.3439 -4.11345,29.4247 -12.81592,50.2543 -30.87007,73.8881 -10.9565,14.3427 -34.45301,32.5626 -52.29328,40.5499 -9.74007,4.3608 -14.91174,4.7145 -50.13961,3.4287 -21.60363,-0.7885 -85.8979,-0.1063 -142.87614,1.516 -56.97823,1.6223 -128.31116,3.3085 -158.5176,3.7472 -54.392677,0.7899 -55.060297,0.735 -69.42584,-5.7052 z m 231.17748,-93.9062 c 61.53399,-1.564 121.78545,-2.0687 133.89214,-1.1216 l 22.01213,1.7219 8.1145,-10.0974 c 9.3806,-11.6729 9.92893,-16.2229 3.2709,-27.1419 -7.40287,-12.1404 -20.503,-20.7408 -46.0721,-30.247 -40.6036,-15.0958 -52.46841,-24.6453 -57.29161,-46.1118 -2.00922,-8.9423 -0.29989,-20.0503 11.19234,-72.7332 28.26536,-129.5742 54.84261,-212.2218 92.02745,-286.17871 17.65451,-35.11313 43.49846,-51.55321 93.48873,-59.47089 19.85599,-3.14488 40.21037,-3.78899 96.45437,-3.05233 90.42914,1.1844 87.59216,0.23201 117.31305,39.38671 45.94186,60.52452 93.96487,139.03822 129.26567,211.33882 29.03169,59.4606 39.11411,85.3314 45.44773,116.6154 6.992,34.5357 6.79004,54.0832 -0.7249,70.2023 -7.46806,16.0183 -10.13095,18.1091 -30.47241,23.9263 -25.52898,7.3006 -37.16516,14.6765 -43.74814,27.731 -3.12414,6.1953 -5.68026,14.9736 -5.68026,19.5071 0,13.6324 17.23736,20.5976 65.63862,26.5229 41.42605,5.0715 192.49408,4.3042 246.65228,-1.2527 38.8126,-3.9824 104.1026,-13.3856 105.9806,-15.2635 0.3956,-0.3958 -0.3514,-4.4532 -1.6601,-9.0165 -6.1468,-21.4328 -26.6905,-34.942 -69.4841,-45.6915 -36.4347,-9.1521 -40.8007,-11.4336 -45.5181,-23.7863 -4.7065,-12.3239 -2.3473,-26.343 6.2788,-37.3095 2.7081,-3.4425 6.8116,-14.6674 9.1188,-24.944 4.3973,-19.5853 10.7624,-44.7668 25.1428,-99.4708 4.7452,-18.0506 25.6731,-83.1067 46.5065,-144.5691 58.0703,-171.3182 71.9713,-217.44092 79.6909,-264.41 3.8181,-23.23138 9.1697,-46.29229 12.5958,-54.27809 5.2147,-12.15453 11.3469,-39.69655 11.3469,-50.96324 0,-2.21402 -9.9064,-9.45343 -23.3522,-17.06526 -59.3669,-33.60842 -114.2781,-74.7599 -152.2102,-114.06857 -34.6721,-35.93053 -55.5098,-66.57304 -69.3058,-101.91621 -3.2521,-8.33105 -6.193,-15.52404 -6.5356,-15.98439 -0.3426,-0.46038 -16.9082,6.54076 -36.8127,15.55804 -102.17959,46.29043 -195.48035,77.72053 -270.9741,91.28276 -12.49659,2.24496 -39.76186,7.3545 -60.5895,11.35454 -20.82764,4.00005 -60.02147,9.12077 -87.0974,11.37942 -107.8667,8.99812 -210.89568,20.72239 -290.32467,33.03776 -82.62274,12.81056 -182.10133,32.48127 -193.25169,38.21324 -2.70956,1.39288 -18.57192,6.60635 -35.24973,11.58547 -16.67779,4.97912 -51.327412,18.29013 -76.999156,29.58 -41.14657963,18.0954 -53.554324,25.10149 -104.74081,59.14242 l -58.064934,38.61532 -29.03247,5.2749 c -78.52441,14.26709 -137.91116,18.89024 -180.30475,14.03644 -101.56665,-11.62876 -171.81694,-26.76617 -236.24804,-50.90634 -40.04132,-15.00213 -123.26201,-52.99907 -146.23812,-66.76945 -76.85894,-46.06427 -141.05735,-94.90761 -193.23803,-147.01905 -59.20296,-59.1244 -99.8933,-113.84063 -135.2631,-181.88814 -24.5944,-47.31691 -29.9553,-55.02276 -43.8222,-62.99164 -15.9582,-9.17063 -24.0542,-9.91818 -41.9875,-3.8769 -44.1459,14.87167 -50.405,23.70794 -50.3802,71.12339 l 0.015,28.56446 14.5012,18.67674 c 13.5358,17.43332 17.6108,20.58445 61.2057,47.33012 25.6874,15.75933 59.1778,36.32416 74.4232,45.69958 15.2453,9.37544 42.51058,29.56621 60.58947,44.86839 153.3086,129.76216 242.7288,193.19843 345.79592,245.31368 56.22895,28.43185 104.72332,47.68222 138.97145,55.16623 36.76859,8.03483 42.65698,9.87935 55.4246,17.3617 20.2477,11.86592 24.59638,37.34055 8.88043,52.02146 -9.8438,9.19549 -60.91439,43.86192 -135.61556,92.05511 -69.35154,44.74191 -91.50167,62.18231 -131.97316,103.91191 -49.65271,51.1963 -109.02179,121.9414 -116.47773,138.7969 -2.91652,6.5933 -5.87544,19.1218 -6.57535,27.8412 -2.73124,34.0257 8.10526,41.3461 64.01485,43.2441 l 35.61691,1.2092 10.44098,-9.4328 c 20.69732,-18.6988 34.0311,-51.4803 48.13881,-118.3507 4.35025,-20.6201 8.91324,-39.365 10.14003,-41.6553 3.43308,-6.4093 52.90791,-54.3679 67.10095,-65.0446 20.75455,-15.6125 59.02109,-39.7371 84.57284,-53.3177 29.79251,-15.83453 76.96949,-29.83921 176.71936,-52.45995 81.17468,-18.40833 98.75891,-23.8124 144.46695,-44.39824 41.12484,-18.52168 46.6991,-20.37807 62.06967,-20.67094 24.371141,-0.46437 41.066425,8.87101 79.520029,44.46459 33.9171922,31.3946 44.905552,46.50579 71.031086,97.68184 33.865035,66.3366 57.418795,137.8952 82.259555,249.9126 10.18838,45.9437 10.25813,46.6032 5.94078,56.1773 -6.57025,14.5702 -18.71754,23.7307 -39.472444,29.7667 -10.062426,2.9264 -24.244836,7.0851 -31.51651,9.2416 -7.271648,2.1564 -17.496126,7.6295 -22.721061,12.1623 l -9.499853,8.2414 6.15405,8.4641 c 7.202955,9.9067 10.892729,12.8709 31.501287,25.3066 l 15.360473,9.2689 44.179838,-1.0575 c 24.29892,-0.5817 94.52583,-2.3372 156.05981,-3.9011 z M 1547.7387,1269.72 c 29.3568,-83.1139 17.0922,-153.7661 1.9212,-242.4133 -19.9755,-72.03657 -15.3269,-86.34338 -29.0693,-145.35181 -19.4949,-71.81806 -20.2335,-128.30532 -72.2016,-180.21332 -30.5217,67.84606 -10.6901,156.43699 -8.5147,208.19377 3.4596,88.87142 4.4367,164.29636 5.9312,253.54976 33.0981,56.5456 58.2131,92.2695 83.5867,142.3075 l 4.8545,-7.9657 c 2.67,-4.3811 8.738,-17.0292 13.4842,-28.1069 z m 126.441,-480.35329 c 21.8296,-27.71657 33.5188,-55.49039 49.6737,-118.0233 6.0981,-23.60466 20.3654,-71.31889 31.7053,-106.03162 20.974,-64.20354 30.267,-97.20163 40.3417,-147.00674 10.9004,-53.88698 10.7426,-109.61922 21.6022,-163.51444 12.5775,-62.42118 25.0575,-98.30354 50.2736,-184.293062 32.9572,-112.388169 47.1351,-170.644818 48.6297,-199.818588 1.8179,-35.48159 -1.1288,-69.04731 -6.0615,-69.04731 -5.7045,0 -25.4118,21.55216 -137.4662,150.335015 -78.1991,89.873186 -124.8285,124.842289 -166.4712,124.842289 -18.216,0 -17.3076,0.744872 -76.8479,-63.012726 -43.787,-46.88837 -66.9416,-65.770658 -142.4184,-116.140728 -57.2962,-38.23685 -166.7234,-99.50709 -170.6695,-95.56087 -2.0409,2.04088 7.4904,27.19819 18.9544,50.02827 14.6556,29.18682 37.0225,68.813055 72.1932,127.901449 28.4308,47.765201 43.9586,117.762456 43.9586,198.159951 0,33.85009 -0.8611,36.5187 -19.8294,61.45893 -26.6036,34.9791 -74.9207,75.94326 -139.7557,118.48739 -29.0711,19.0761 -29.5452,19.53971 -28.087,27.45731 7.7357,42.001 47.9412,96.80599 103.0104,140.41609 30.4518,24.11515 85.8599,60.40993 88.3782,57.89168 0.5301,-0.53008 2.6376,-17.03383 4.6833,-36.675 3.9739,-38.15235 6.6911,-46.77479 17.1887,-54.54065 35.5161,-26.27431 100.9944,28.06238 168.1429,139.53264 2.9275,4.85979 10.4045,21.90058 16.6157,37.86844 26.8171,68.94287 47.7041,104.82508 70.7264,121.50234 7.689,5.56984 12.7975,7.25034 22.0406,7.25034 10.895,0 12.7365,-0.8946 19.4882,-9.4671 z"
           id="path3397"
           inkscape:connector-curvature="0"
           sodipodi:nodetypes="ssssssscsssscssscsssssssscssssssssssssssssscsssssscssssssscscssscssssssscsssssscsssccsccscssscsscssscssscsscsssscssssssssscscssssssssssssssssscssscssssssssccssssssssscssssssssscssssssssssssscssssssssssssscscsscscccccccccsccsssaassssssscsssssssssssssss" />
        <path
           style="fill:#da251c;fill-opacity:1;fill-rule:evenodd;stroke:none;stroke-width:1px;stroke-linecap:butt;stroke-linejoin:miter;stroke-opacity:1"
           d="m 1521.4286,214.50506 c 54.337,-20.52927 108.7028,74.98275 102.8571,131.42857 -5.033,48.59899 -43.0452,125.18105 -96.4285,112.85715 -49.8082,-11.49857 -80.3001,-69.07962 -79.9514,-124.2413 0.3236,-51.19402 26.9733,-102.45735 73.5228,-120.04442 z"
           id="path3399"
           inkscape:connector-curvature="0"
           sodipodi:nodetypes="sssss" />
        <path
           style="fill:#da251c;fill-opacity:1;fill-rule:evenodd;stroke:none;stroke-width:1px;stroke-linecap:butt;stroke-linejoin:miter;stroke-opacity:1"
           d="m 1729.6567,236.23558 c 45.5889,-17.22411 91.2019,62.9107 86.2973,110.26888 -4.2227,40.77467 -36.115,105.0272 -80.9037,94.68742 -41.7892,-9.64733 -67.372,-57.95796 -67.0794,-104.23875 0.2715,-42.9519 22.6306,-85.96196 61.6858,-100.71755 z"
           id="path3399-1"
           inkscape:connector-curvature="0"
           sodipodi:nodetypes="sssss" />
      </g>
      <g
         transform="translate(2.8595535e-6,18.182746)"
         id="g4280">
        <path
           style="fill:none;fill-rule:evenodd;stroke:#000000;stroke-width:50;stroke-linecap:butt;stroke-linejoin:miter;stroke-miterlimit:4;stroke-dasharray:none;stroke-opacity:1"
           d="m 1458.6603,1112.9714 129.2995,-109.0965"
           id="path3474"
           inkscape:connector-curvature="0" />
        <path
           style="fill:none;fill-rule:evenodd;stroke:#000000;stroke-width:50;stroke-linecap:butt;stroke-linejoin:miter;stroke-miterlimit:4;stroke-dasharray:none;stroke-opacity:1"
           d="m 1420.2745,803.86468 107.0761,-94.95434"
           id="path3476"
           inkscape:connector-curvature="0" />
        <path
           style="fill:none;fill-rule:evenodd;stroke:#000000;stroke-width:50;stroke-linecap:butt;stroke-linejoin:miter;stroke-miterlimit:4;stroke-dasharray:none;stroke-opacity:1"
           d="M 1422.2948,979.63122 1567.7567,866.49414"
           id="path3478"
           inkscape:connector-curvature="0" />
      </g>
    </g>
  </g>
</svg>
